<?xml version="1.0" encoding="UTF-8"?>
<svg width="775px" height="294px" viewBox="0 0 775 294" version="1.1" xmlns="http://www.w3.org/2000/svg" xmlns:xlink="http://www.w3.org/1999/xlink">
    <title>logo组合-反白-2</title>
    <g id="gogs-定稿" stroke="none" stroke-width="1" fill="none" fill-rule="evenodd">
        <g id="logo组合-转曲" transform="translate(-212.000000, -786.000000)">
            <g id="logo组合-反白-2" transform="translate(212.000000, 786.000000)">
                <rect id="矩形复制" x="0" y="-1.13686838e-13" width="775" height="294"></rect>
                <path d="M381.16,203.28 C388.733333,203.28 395.84,202.28 402.48,200.28 C409.12,198.28 415.373333,195.12 421.24,190.8 L421.24,190.8 L421.24,144 L382.84,144 L382.84,156.16 C382.84,157.28 383.226667,158.226667 384,159 C384.773333,159.773333 385.853333,160.16 387.24,160.16 L387.24,160.16 L401.8,160.16 L401.8,181.12 C398.6,182.666667 395.32,183.893333 391.96,184.8 C388.6,185.706667 384.786667,186.16 380.52,186.16 C374.546667,186.16 369.133333,185.213333 364.28,183.32 C359.426667,181.426667 355.28,178.68 351.84,175.08 C348.4,171.48 345.733333,167.08 343.84,161.88 C341.946667,156.68 341,150.773333 341,144.16 C341,137.973333 341.88,132.373333 343.64,127.36 C345.4,122.346667 347.906667,118.053333 351.16,114.48 C354.413333,110.906667 358.346667,108.16 362.96,106.24 C367.573333,104.32 372.733333,103.36 378.44,103.36 C381.96,103.36 385.066667,103.6 387.76,104.08 C390.453333,104.56 392.88,105.173333 395.04,105.92 C397.2,106.666667 399.16,107.546667 400.92,108.56 L400.92,108.56 L406.2,111.6 C408.013333,112.72 409.693333,113.106667 411.24,112.76 C412.786667,112.413333 414.04,111.466667 415,109.92 L415,109.92 L421.16,100.16 C418.76,97.92 416.12,95.8666667 413.24,94 C410.36,92.1333333 407.173333,90.5466667 403.68,89.24 C400.186667,87.9333333 396.4,86.9066667 392.32,86.16 C388.24,85.4133333 383.853333,85.04 379.16,85.04 C369.933333,85.04 361.613333,86.48 354.2,89.36 C346.786667,92.24 340.48,96.2933333 335.28,101.52 C330.08,106.746667 326.066667,112.986667 323.24,120.24 C320.413333,127.493333 319,135.466667 319,144.16 C319,152.746667 320.466667,160.666667 323.4,167.92 C326.333333,175.173333 330.506667,181.413333 335.92,186.64 C341.333333,191.866667 347.866667,195.946667 355.52,198.88 C363.173333,201.813333 371.72,203.28 381.16,203.28 Z M470.724444,203.2 C476.804444,203.2 482.337777,202.213333 487.324444,200.24 C492.311111,198.266667 496.577777,195.44 500.124444,191.76 C503.671111,188.08 506.404444,183.626667 508.324444,178.4 C510.244444,173.173333 511.204444,167.306667 511.204444,160.8 C511.204444,154.346667 510.244444,148.506667 508.324444,143.28 C506.404444,138.053333 503.671111,133.626667 500.124444,130 C496.577777,126.373333 492.311111,123.573333 487.324444,121.6 C482.337777,119.626667 476.804444,118.64 470.724444,118.64 C464.591111,118.64 459.017777,119.626667 454.004444,121.6 C448.991111,123.573333 444.711111,126.373333 441.164444,130 C437.617777,133.626667 434.871111,138.053333 432.924444,143.28 C430.977777,148.506667 430.004444,154.346667 430.004444,160.8 C430.004444,167.306667 430.977777,173.173333 432.924444,178.4 C434.871111,183.626667 437.617777,188.08 441.164444,191.76 C444.711111,195.44 448.991111,198.266667 454.004444,200.24 C459.017777,202.213333 464.591111,203.2 470.724444,203.2 Z M470.724444,188 C463.791111,188 458.657777,185.693333 455.324444,181.08 C451.991111,176.466667 450.324444,169.76 450.324444,160.96 C450.324444,152.16 451.991111,145.426667 455.324444,140.76 C458.657777,136.093333 463.791111,133.76 470.724444,133.76 C477.551111,133.76 482.604444,136.08 485.884444,140.72 C489.164444,145.36 490.804444,152.106667 490.804444,160.96 C490.804444,169.813333 489.164444,176.533333 485.884444,181.12 C482.604444,185.706667 477.551111,188 470.724444,188 Z M552.928888,230.88 C559.222221,230.88 564.835555,230.066667 569.768888,228.44 C574.702221,226.813333 578.862221,224.666667 582.248888,222 C585.635555,219.333333 588.222221,216.293333 590.008888,212.88 C591.795555,209.466667 592.688888,205.946667 592.688888,202.32 C592.688888,198.426667 591.928888,195.24 590.408888,192.76 C588.888888,190.28 586.875555,188.32 584.368888,186.88 C581.862221,185.44 579.008888,184.386667 575.808888,183.72 C572.608888,183.053333 569.328888,182.586667 565.968888,182.32 C562.608888,182.053333 559.328888,181.88 556.128888,181.8 C552.928888,181.72 550.075555,181.52 547.568888,181.2 C545.062221,180.88 543.048888,180.333333 541.528888,179.56 C540.008888,178.786667 539.248888,177.573333 539.248888,175.92 C539.248888,174 540.528888,172.266667 543.088888,170.72 C544.528888,170.986667 545.995555,171.2 547.488888,171.36 C548.982221,171.52 550.528888,171.6 552.128888,171.6 C556.662221,171.6 560.888888,170.973333 564.808888,169.72 C568.728888,168.466667 572.128888,166.693333 575.008888,164.4 C577.888888,162.106667 580.142221,159.32 581.768888,156.04 C583.395555,152.76 584.208888,149.093333 584.208888,145.04 C584.208888,141.68 583.648888,138.586667 582.528888,135.76 L582.528888,135.76 L589.888888,134.4 C592.715555,133.866667 594.128888,132.426667 594.128888,130.08 L594.128888,130.08 L594.128888,122.72 L570.528888,122.72 C567.968888,121.333333 565.142221,120.28 562.048888,119.56 C558.955555,118.84 555.648888,118.48 552.128888,118.48 C547.435555,118.48 543.102221,119.093333 539.128888,120.32 C535.155555,121.546667 531.715555,123.32 528.808888,125.64 C525.902221,127.96 523.635555,130.76 522.008888,134.04 C520.382221,137.32 519.568888,140.986667 519.568888,145.04 C519.568888,150.053333 520.755555,154.426667 523.128888,158.16 C525.502221,161.893333 528.768888,164.88 532.928888,167.12 C531.115555,168.026667 529.542221,169.053333 528.208888,170.2 C526.875555,171.346667 525.768888,172.56 524.888888,173.84 C524.008888,175.12 523.342221,176.413333 522.888888,177.72 C522.435555,179.026667 522.208888,180.293333 522.208888,181.52 C522.208888,184.56 522.848888,187.013333 524.128888,188.88 C525.408888,190.746667 527.142221,192.24 529.328888,193.36 C525.275555,194.906667 522.088888,196.973333 519.768888,199.56 C517.448888,202.146667 516.288888,205.36 516.288888,209.2 C516.288888,212.026667 517.035555,214.746667 518.528888,217.36 C520.022221,219.973333 522.288888,222.28 525.328888,224.28 C528.368888,226.28 532.182221,227.88 536.768888,229.08 C541.355555,230.28 546.742221,230.88 552.928888,230.88 Z M552.128888,158.96 C549.728888,158.96 547.608888,158.626667 545.768888,157.96 C543.928888,157.293333 542.408888,156.36 541.208888,155.16 C540.008888,153.96 539.102221,152.533333 538.488888,150.88 C537.875555,149.226667 537.568888,147.44 537.568888,145.52 C537.568888,141.466667 538.782221,138.253333 541.208888,135.88 C543.635555,133.506667 547.275555,132.32 552.128888,132.32 C556.982221,132.32 560.622221,133.506667 563.048888,135.88 C565.475555,138.253333 566.688888,141.466667 566.688888,145.52 C566.688888,147.493333 566.382221,149.306667 565.768888,150.96 C565.155555,152.613333 564.248888,154.026667 563.048888,155.2 C561.848888,156.373333 560.342221,157.293333 558.528888,157.96 C556.715555,158.626667 554.582221,158.96 552.128888,158.96 Z M553.328888,216.8 C549.702221,216.8 546.635555,216.546667 544.128888,216.04 C541.622221,215.533333 539.582221,214.826667 538.008888,213.92 C536.435555,213.013333 535.288888,211.933333 534.568888,210.68 C533.848888,209.426667 533.488888,208.08 533.488888,206.64 C533.488888,204.453333 534.168888,202.533333 535.528888,200.88 C536.888888,199.226667 538.662221,197.786667 540.848888,196.56 C543.355555,196.88 545.928888,197.093333 548.568888,197.2 C551.208888,197.306667 553.768888,197.426667 556.248888,197.56 C558.728888,197.693333 561.075555,197.893333 563.288888,198.16 C565.502221,198.426667 567.435555,198.84 569.088888,199.4 C570.742221,199.96 572.048888,200.746667 573.008888,201.76 C573.968888,202.773333 574.448888,204.08 574.448888,205.68 C574.448888,207.28 574.048888,208.76 573.248888,210.12 C572.448888,211.48 571.182221,212.653333 569.448888,213.64 C567.715555,214.626667 565.515555,215.4 562.848888,215.96 C560.182221,216.52 557.008888,216.8 553.328888,216.8 Z M625.693332,203.28 C631.026665,203.28 635.733332,202.6 639.813332,201.24 C643.893332,199.88 647.319999,197.986667 650.093332,195.56 C652.866665,193.133333 654.959999,190.253333 656.373332,186.92 C657.786665,183.586667 658.493332,179.946667 658.493332,176 C658.493332,172.693333 657.919999,169.866667 656.773332,167.52 C655.626665,165.173333 654.106665,163.16 652.213332,161.48 C650.319999,159.8 648.173332,158.413333 645.773332,157.32 C643.373332,156.226667 640.933332,155.253333 638.453332,154.4 C635.973332,153.546667 633.533332,152.76 631.133332,152.04 C628.733332,151.32 626.586665,150.506667 624.693332,149.6 C622.799999,148.693333 621.279999,147.64 620.133332,146.44 C618.986665,145.24 618.413332,143.76 618.413332,142 C618.413332,139.333333 619.519999,137.173333 621.733332,135.52 C623.946665,133.866667 626.999999,133.04 630.893332,133.04 C633.399999,133.04 635.573332,133.306667 637.413332,133.84 C639.253332,134.373333 640.893332,134.973333 642.333332,135.64 C643.773332,136.306667 645.039999,136.906667 646.133332,137.44 C647.226665,137.973333 648.253332,138.24 649.213332,138.24 C650.119999,138.24 650.866665,138.066667 651.453332,137.72 C652.039999,137.373333 652.599999,136.773333 653.133332,135.92 L653.133332,135.92 L657.613332,128.8 C654.519999,125.76 650.653332,123.306667 646.013332,121.44 C641.373332,119.573333 636.226665,118.64 630.573332,118.64 C625.506665,118.64 621.039999,119.32 617.173332,120.68 C613.306665,122.04 610.079999,123.853333 607.493332,126.12 C604.906665,128.386667 602.946665,131.04 601.613332,134.08 C600.279999,137.12 599.613332,140.32 599.613332,143.68 C599.613332,147.306667 600.186665,150.4 601.333332,152.96 C602.479999,155.52 603.999999,157.68 605.893332,159.44 C607.786665,161.2 609.946665,162.653333 612.373332,163.8 C614.799999,164.946667 617.279999,165.946667 619.813332,166.8 C622.346665,167.653333 624.826665,168.44 627.253332,169.16 C629.679999,169.88 631.839999,170.693333 633.733332,171.6 C635.626665,172.506667 637.146665,173.573333 638.293332,174.8 C639.439999,176.026667 640.013332,177.6 640.013332,179.52 C640.013332,180.8 639.759999,182.04 639.253332,183.24 C638.746665,184.44 637.946665,185.493333 636.853332,186.4 C635.759999,187.306667 634.373332,188.04 632.693332,188.6 C631.013332,189.16 628.999999,189.44 626.653332,189.44 C623.666665,189.44 621.199999,189.093333 619.253332,188.4 C617.306665,187.706667 615.613332,186.96 614.173332,186.16 C612.733332,185.36 611.466665,184.613333 610.373332,183.92 C609.279999,183.226667 608.119999,182.88 606.893332,182.88 C605.666665,182.88 604.653332,183.12 603.853332,183.6 C603.053332,184.08 602.359999,184.773333 601.773332,185.68 L601.773332,185.68 L597.213332,193.2 C598.813332,194.64 600.666665,195.973333 602.773332,197.2 C604.879999,198.426667 607.173332,199.493333 609.653332,200.4 C612.133332,201.306667 614.719999,202.013333 617.413332,202.52 C620.106665,203.026667 622.866665,203.28 625.693332,203.28 Z" id="Gogs" fill="#FFFFFF" fill-rule="nonzero"></path>
                <path d="M208.389148,50 C209.909305,50 211.24456,51.0089929 211.658889,52.4707979 L215.953018,67.6210199 C227.631425,71.3613512 238.209691,77.5582615 247.079072,85.6033302 L262.379671,81.7384823 C263.853487,81.3662037 265.395405,82.0174412 266.155483,83.3332172 L284.544632,115.166783 C285.30471,116.482559 285.098047,118.142789 284.03856,119.232316 L273.053677,130.528656 C274.302561,136.32145 274.960136,142.333975 274.960136,148.5 C274.960136,154.666025 274.302561,160.67855 273.053677,166.471344 L284.03856,177.767684 C285.098047,178.857211 285.30471,180.517441 284.544632,181.833217 L266.155483,213.666783 C265.395405,214.982559 263.853487,215.633796 262.379671,215.261518 L247.079079,211.396663 C238.209691,219.441738 227.631425,225.638649 215.953034,229.378975 L211.658889,244.529202 C211.24456,245.991007 209.909305,247 208.389148,247 L171.610852,247 C170.090695,247 168.75544,245.991007 168.341111,244.529202 L164.046982,229.37898 C152.368575,225.638649 141.790309,219.441738 132.920928,211.39667 L117.620329,215.261518 C116.146513,215.633796 114.604595,214.982559 113.844517,213.666783 L95.4553685,181.833217 C94.6952903,180.517441 94.9019532,178.857211 95.9614398,177.767684 L106.946323,166.471344 C105.697439,160.67855 105.039864,154.666025 105.039864,148.5 C105.039864,142.333975 105.697439,136.32145 106.946323,130.528656 L95.9614398,119.232316 C94.9019532,118.142789 94.6952903,116.482559 95.4553685,115.166783 L113.844517,83.3332172 C114.604595,82.0174412 116.146513,81.3662037 117.620329,81.7384823 L132.920921,85.6033365 C141.790309,77.5582615 152.368575,71.3613512 164.046966,67.6210251 L168.341111,52.4707979 C168.75544,51.0089929 170.090695,50 171.610852,50 L208.389148,50 Z M223.106971,96.1142102 C194.378503,79.4103856 157.643553,89.3231773 141.057164,118.25505 C124.470775,147.186923 134.313875,184.181965 163.042343,200.88579 C191.770812,217.589614 228.505762,207.676823 245.092151,178.74495 C246.961039,175.485021 245.851958,171.316565 242.614947,169.434444 L242.614947,169.434444 L211.47789,151.330174 C212.599522,143.920614 209.214466,136.241344 202.380444,132.267783 C193.478666,127.09195 182.096005,130.16352 176.95656,139.128325 C171.817116,148.093131 174.867091,159.556384 183.76887,164.732217 C190.602891,168.705777 198.899107,167.818442 204.710045,163.135423 L204.710045,163.135423 L229.562796,177.585758 C215.479857,195.550019 190.073911,200.862641 169.810189,189.080541 C147.555741,176.140959 139.930804,147.482828 152.779416,125.070814 C165.628027,102.658799 194.084678,94.9798762 216.339126,107.919459 C219.576136,109.80158 223.715285,108.684645 225.584174,105.424716 C227.453063,102.164787 226.343981,97.9963313 223.106971,96.1142102 Z" id="形状结合" fill="#FFFFFF"></path>
            </g>
        </g>
    </g>
</svg>