<?xml version="1.0" encoding="UTF-8"?>
<svg width="775px" height="294px" viewBox="0 0 775 294" version="1.1" xmlns="http://www.w3.org/2000/svg" xmlns:xlink="http://www.w3.org/1999/xlink">
    <title>logo组合-反白-1</title>
    <defs>
        <radialGradient cx="39.6065985%" cy="0%" fx="39.6065985%" fy="0%" r="103.684211%" gradientTransform="translate(0.396066,0.000000),scale(1.000000,0.964467),rotate(90.000000),translate(-0.396066,-0.000000)" id="radialGradient-1">
            <stop stop-color="#F47359" offset="0%"></stop>
            <stop stop-color="#BE4025" offset="100%"></stop>
        </radialGradient>
    </defs>
    <g id="gogs-定稿" stroke="none" stroke-width="1" fill="none" fill-rule="evenodd">
        <g id="logo组合备份" transform="translate(-212.000000, -492.000000)">
            <g id="logo组合-反白-1" transform="translate(212.000000, 492.000000)">
                <rect id="矩形复制" x="0" y="-1.13686838e-13" width="775" height="294"></rect>
                <text id="Gogs" font-family="Lato-Bold, Lato" font-size="160" font-weight="bold" line-spacing="180" letter-spacing="-3.555556" fill="#FFFFFF">
                    <tspan x="313" y="208">Gogs</tspan>
                </text>
                <g id="graph" transform="translate(95.000000, 50.000000)">
                    <path d="M11.9463234,116.471344 C10.6974392,110.67855 10.0398645,104.666025 10.0398645,98.5 C10.0398645,92.3339746 10.6974392,86.3214502 11.9463234,80.5286559 L0.961439764,69.2323156 C-0.0980468216,68.1427892 -0.304709742,66.4825588 0.455368497,65.1667828 L18.8445167,33.3332172 C19.604595,32.0174412 21.1465128,31.3662037 22.6203286,31.7384823 L37.9209212,35.6033365 C46.7903094,27.5582615 57.3685746,21.3613512 69.0469657,17.6210251 L73.3411112,2.47079792 C73.7554404,1.00899289 75.0906953,0 76.6108518,0 L113.389148,0 C114.909305,0 116.24456,1.00899289 116.658889,2.47079792 L120.953018,17.6210199 C132.631425,21.3613512 143.209691,27.5582615 152.079072,35.6033302 L167.379671,31.7384823 C168.853487,31.3662037 170.395405,32.0174412 171.155483,33.3332172 L189.544632,65.1667828 C190.30471,66.4825588 190.098047,68.1427892 189.03856,69.2323156 L178.053677,80.5286559 C179.302561,86.3214502 179.960136,92.3339746 179.960136,98.5 C179.960136,104.666025 179.302561,110.67855 178.053677,116.471344 L189.03856,127.767684 C190.098047,128.857211 190.30471,130.517441 189.544632,131.833217 L171.155483,163.666783 C170.395405,164.982559 168.853487,165.633796 167.379671,165.261518 L152.079079,161.396663 C143.209691,169.441738 132.631425,175.638649 120.953034,179.378975 L116.658889,194.529202 C116.24456,195.991007 114.909305,197 113.389148,197 L76.6108518,197 C75.0906953,197 73.7554404,195.991007 73.3411112,194.529202 L69.0469819,179.37898 C57.3685746,175.638649 46.7903094,169.441738 37.9209282,161.39667 L22.6203286,165.261518 C21.1465128,165.633796 19.604595,164.982559 18.8445167,163.666783 L0.455368497,131.833217 C-0.304709742,130.517441 -0.0980468216,128.857211 0.961439764,127.767684 L11.9463234,116.471344 Z" id="路径" fill="url(#radialGradient-1)"></path>
                    <path d="M109.710045,113.135423 C103.899107,117.818442 95.6028912,118.705777 88.7688697,114.732217 C79.8670907,109.556384 76.817116,98.0931311 81.9565605,89.1283254 C87.096005,80.1635197 98.4786655,77.0919505 107.380444,82.2677834 C114.214466,86.2413436 117.599522,93.9206144 116.47789,101.330174 L147.614947,119.434444 C150.851958,121.316565 151.961039,125.485021 150.092151,128.74495 C133.505762,157.676823 96.7708116,167.589614 68.0423432,150.88579 C39.3138748,134.181965 29.4707746,97.186923 46.0571636,68.2550502 C62.6435525,39.3231773 99.3785026,29.4103856 128.106971,46.1142102 C131.343981,47.9963313 132.453063,52.1647867 130.584174,55.4247161 C128.715285,58.6846454 124.576136,59.8015797 121.339126,57.9194586 C99.0846782,44.9798762 70.6280268,52.6587994 57.7794156,75.0708135 C44.9308045,97.4828277 52.5557412,126.140959 74.8101886,139.080541 C95.0739113,150.862641 120.479857,145.550019 134.562796,127.585758 L109.710045,113.135423 Z" id="路径复制-5" fill="#FFFFFF" fill-rule="nonzero"></path>
                </g>
            </g>
        </g>
    </g>
</svg>